<mxfile host="app.diagrams.net" agent="Mozilla/5.0 (X11; Linux x86_64; rv:136.0) Gecko/20100101 Firefox/136.0" version="26.0.16">
  <diagram name="Page-1" id="bBIqPAnWBGdHMVQmZyLq">
    <mxGraphModel dx="2074" dy="1119" grid="1" gridSize="10" guides="1" tooltips="1" connect="1" arrows="1" fold="1" page="1" pageScale="1" pageWidth="850" pageHeight="1100" math="0" shadow="0">
      <root>
        <mxCell id="0" />
        <mxCell id="1" parent="0" />
        <mxCell id="u0HgmYtzBeIoNNGsAcMy-13" value="" style="rounded=0;whiteSpace=wrap;html=1;fillColor=#dae8fc;strokeColor=#6c8ebf;" vertex="1" parent="1">
          <mxGeometry x="320" y="640" width="200" height="240" as="geometry" />
        </mxCell>
        <mxCell id="u0HgmYtzBeIoNNGsAcMy-23" style="edgeStyle=orthogonalEdgeStyle;rounded=0;orthogonalLoop=1;jettySize=auto;html=1;exitX=0.5;exitY=1;exitDx=0;exitDy=0;entryX=0.5;entryY=0;entryDx=0;entryDy=0;" edge="1" parent="1" source="u0HgmYtzBeIoNNGsAcMy-1" target="u0HgmYtzBeIoNNGsAcMy-2">
          <mxGeometry relative="1" as="geometry" />
        </mxCell>
        <mxCell id="u0HgmYtzBeIoNNGsAcMy-1" value="&lt;div&gt;&lt;font style=&quot;font-size: 20px;&quot;&gt;Plaintext&lt;/font&gt;&lt;/div&gt;" style="text;html=1;align=center;verticalAlign=middle;whiteSpace=wrap;rounded=0;" vertex="1" parent="1">
          <mxGeometry x="390" y="130" width="60" height="30" as="geometry" />
        </mxCell>
        <mxCell id="u0HgmYtzBeIoNNGsAcMy-2" value="&lt;div&gt;AddRoundKey&lt;/div&gt;" style="rounded=1;whiteSpace=wrap;html=1;fillColor=#fff2cc;strokeColor=#d6b656;" vertex="1" parent="1">
          <mxGeometry x="360" y="180" width="120" height="60" as="geometry" />
        </mxCell>
        <mxCell id="u0HgmYtzBeIoNNGsAcMy-3" value="" style="rounded=0;whiteSpace=wrap;html=1;fillColor=#dae8fc;strokeColor=#6c8ebf;" vertex="1" parent="1">
          <mxGeometry x="320" y="280" width="200" height="320" as="geometry" />
        </mxCell>
        <mxCell id="u0HgmYtzBeIoNNGsAcMy-20" style="edgeStyle=orthogonalEdgeStyle;rounded=0;orthogonalLoop=1;jettySize=auto;html=1;exitX=0.5;exitY=1;exitDx=0;exitDy=0;entryX=0.5;entryY=0;entryDx=0;entryDy=0;" edge="1" parent="1" source="u0HgmYtzBeIoNNGsAcMy-4" target="u0HgmYtzBeIoNNGsAcMy-5">
          <mxGeometry relative="1" as="geometry" />
        </mxCell>
        <mxCell id="u0HgmYtzBeIoNNGsAcMy-4" value="SubBytes" style="rounded=1;whiteSpace=wrap;html=1;fillColor=#fff2cc;strokeColor=#d6b656;" vertex="1" parent="1">
          <mxGeometry x="360" y="290" width="120" height="60" as="geometry" />
        </mxCell>
        <mxCell id="u0HgmYtzBeIoNNGsAcMy-21" style="edgeStyle=orthogonalEdgeStyle;rounded=0;orthogonalLoop=1;jettySize=auto;html=1;exitX=0.5;exitY=1;exitDx=0;exitDy=0;entryX=0.5;entryY=0;entryDx=0;entryDy=0;" edge="1" parent="1" source="u0HgmYtzBeIoNNGsAcMy-5" target="u0HgmYtzBeIoNNGsAcMy-6">
          <mxGeometry relative="1" as="geometry" />
        </mxCell>
        <mxCell id="u0HgmYtzBeIoNNGsAcMy-5" value="ShiftRows" style="rounded=1;whiteSpace=wrap;html=1;fillColor=#fff2cc;strokeColor=#d6b656;" vertex="1" parent="1">
          <mxGeometry x="360" y="370" width="120" height="60" as="geometry" />
        </mxCell>
        <mxCell id="u0HgmYtzBeIoNNGsAcMy-22" style="edgeStyle=orthogonalEdgeStyle;rounded=0;orthogonalLoop=1;jettySize=auto;html=1;exitX=0.5;exitY=1;exitDx=0;exitDy=0;entryX=0.5;entryY=0;entryDx=0;entryDy=0;" edge="1" parent="1" source="u0HgmYtzBeIoNNGsAcMy-6" target="u0HgmYtzBeIoNNGsAcMy-7">
          <mxGeometry relative="1" as="geometry" />
        </mxCell>
        <mxCell id="u0HgmYtzBeIoNNGsAcMy-6" value="MixColumns" style="rounded=1;whiteSpace=wrap;html=1;fillColor=#fff2cc;strokeColor=#d6b656;" vertex="1" parent="1">
          <mxGeometry x="360" y="450" width="120" height="60" as="geometry" />
        </mxCell>
        <mxCell id="u0HgmYtzBeIoNNGsAcMy-15" style="edgeStyle=orthogonalEdgeStyle;rounded=0;orthogonalLoop=1;jettySize=auto;html=1;exitX=0.5;exitY=1;exitDx=0;exitDy=0;entryX=0.5;entryY=0;entryDx=0;entryDy=0;" edge="1" parent="1" source="u0HgmYtzBeIoNNGsAcMy-7" target="u0HgmYtzBeIoNNGsAcMy-8">
          <mxGeometry relative="1" as="geometry" />
        </mxCell>
        <mxCell id="u0HgmYtzBeIoNNGsAcMy-7" value="AddRoundKey" style="rounded=1;whiteSpace=wrap;html=1;fillColor=#fff2cc;strokeColor=#d6b656;" vertex="1" parent="1">
          <mxGeometry x="360" y="530" width="120" height="60" as="geometry" />
        </mxCell>
        <mxCell id="u0HgmYtzBeIoNNGsAcMy-16" style="edgeStyle=orthogonalEdgeStyle;rounded=0;orthogonalLoop=1;jettySize=auto;html=1;exitX=0.5;exitY=1;exitDx=0;exitDy=0;entryX=0.5;entryY=0;entryDx=0;entryDy=0;" edge="1" parent="1" source="u0HgmYtzBeIoNNGsAcMy-8" target="u0HgmYtzBeIoNNGsAcMy-9">
          <mxGeometry relative="1" as="geometry" />
        </mxCell>
        <mxCell id="u0HgmYtzBeIoNNGsAcMy-8" value="SubBytes" style="rounded=1;whiteSpace=wrap;html=1;fillColor=#fff2cc;strokeColor=#d6b656;" vertex="1" parent="1">
          <mxGeometry x="360" y="650" width="120" height="60" as="geometry" />
        </mxCell>
        <mxCell id="u0HgmYtzBeIoNNGsAcMy-17" style="edgeStyle=orthogonalEdgeStyle;rounded=0;orthogonalLoop=1;jettySize=auto;html=1;exitX=0.5;exitY=1;exitDx=0;exitDy=0;entryX=0.5;entryY=0;entryDx=0;entryDy=0;" edge="1" parent="1" source="u0HgmYtzBeIoNNGsAcMy-9" target="u0HgmYtzBeIoNNGsAcMy-11">
          <mxGeometry relative="1" as="geometry" />
        </mxCell>
        <mxCell id="u0HgmYtzBeIoNNGsAcMy-9" value="ShiftRows" style="rounded=1;whiteSpace=wrap;html=1;fillColor=#fff2cc;strokeColor=#d6b656;" vertex="1" parent="1">
          <mxGeometry x="360" y="730" width="120" height="60" as="geometry" />
        </mxCell>
        <mxCell id="u0HgmYtzBeIoNNGsAcMy-18" style="edgeStyle=orthogonalEdgeStyle;rounded=0;orthogonalLoop=1;jettySize=auto;html=1;exitX=0.5;exitY=1;exitDx=0;exitDy=0;" edge="1" parent="1" source="u0HgmYtzBeIoNNGsAcMy-11" target="u0HgmYtzBeIoNNGsAcMy-12">
          <mxGeometry relative="1" as="geometry" />
        </mxCell>
        <mxCell id="u0HgmYtzBeIoNNGsAcMy-11" value="AddRoundKey" style="rounded=1;whiteSpace=wrap;html=1;fillColor=#fff2cc;strokeColor=#d6b656;" vertex="1" parent="1">
          <mxGeometry x="360" y="810" width="120" height="60" as="geometry" />
        </mxCell>
        <mxCell id="u0HgmYtzBeIoNNGsAcMy-12" value="&lt;font style=&quot;font-size: 20px;&quot;&gt;Ciphertext&lt;/font&gt;" style="text;html=1;align=center;verticalAlign=middle;whiteSpace=wrap;rounded=0;" vertex="1" parent="1">
          <mxGeometry x="390" y="900" width="60" height="30" as="geometry" />
        </mxCell>
        <mxCell id="u0HgmYtzBeIoNNGsAcMy-19" style="edgeStyle=orthogonalEdgeStyle;rounded=0;orthogonalLoop=1;jettySize=auto;html=1;exitX=0.5;exitY=1;exitDx=0;exitDy=0;" edge="1" parent="1" source="u0HgmYtzBeIoNNGsAcMy-2" target="u0HgmYtzBeIoNNGsAcMy-4">
          <mxGeometry relative="1" as="geometry" />
        </mxCell>
        <mxCell id="u0HgmYtzBeIoNNGsAcMy-27" value="&lt;font style=&quot;font-size: 22px;&quot;&gt;Number of Rounds -1&lt;/font&gt;" style="text;html=1;align=center;verticalAlign=middle;whiteSpace=wrap;rounded=0;" vertex="1" parent="1">
          <mxGeometry x="540" y="425" width="110" height="30" as="geometry" />
        </mxCell>
        <mxCell id="u0HgmYtzBeIoNNGsAcMy-28" value="&lt;font style=&quot;font-size: 22px;&quot;&gt;Last Round&lt;/font&gt;" style="text;html=1;align=center;verticalAlign=middle;whiteSpace=wrap;rounded=0;" vertex="1" parent="1">
          <mxGeometry x="540" y="745" width="110" height="30" as="geometry" />
        </mxCell>
      </root>
    </mxGraphModel>
  </diagram>
</mxfile>
